<svg width="24" height="30" viewBox="0 0 24 30" fill="none" xmlns="http://www.w3.org/2000/svg">
<path d="M12.0004 0C5.67574 0 0.529785 5.14595 0.529785 11.4706V22.0587C0.529785 23.5185 1.71722 24.706 3.1768 24.706C4.63661 24.706 5.82405 23.5185 5.82405 22.0587V13.2353C5.82405 11.7757 4.63661 10.5883 3.1768 10.5883C2.87971 10.5883 2.59865 10.6485 2.33154 10.7391C2.70805 5.72868 6.89613 1.76468 12.0004 1.76468C17.102 1.76468 21.2889 5.72502 21.6689 10.732C21.4034 10.6412 21.1207 10.5883 20.8241 10.5883C19.3642 10.5883 18.1768 11.7757 18.1768 13.2353V22.0587C18.1768 23.5185 19.3642 24.706 20.8241 24.706C21.1349 24.706 21.429 24.6423 21.7064 24.5435V25.5883C21.7064 26.0751 21.31 26.4706 20.8241 26.4706H14.4849C14.1194 25.4457 13.1492 24.706 12.0004 24.706C10.5408 24.706 9.35341 25.8934 9.35341 27.353C9.35341 28.8126 10.5408 30 12.0004 30C13.1492 30 14.1194 29.26 14.4849 28.2353H20.8241C22.2836 28.2353 23.4711 27.0479 23.4711 25.5883C23.4711 20.281 23.4711 16.7837 23.4711 11.4706C23.4711 5.14595 18.3251 0 12.0004 0V0Z" fill="#FFA825"/>
</svg>
