<svg width="49" height="45" viewBox="0 0 49 45" fill="none" xmlns="http://www.w3.org/2000/svg">
<path d="M1 17.0004H2.21L5.82 32.1404L6.08 33.2304V33.3904C6.39585 34.7172 7.15436 35.8969 8.2305 36.7349C9.30664 37.5729 10.6362 38.0192 12 38.0004H28C28.2652 38.0004 28.5196 37.895 28.7071 37.7075C28.8946 37.5199 29 37.2656 29 37.0004C29 36.7351 28.8946 36.4808 28.7071 36.2932C28.5196 36.1057 28.2652 36.0004 28 36.0004H12C11.2918 36.0067 10.5946 35.8249 9.97964 35.4735C9.36471 35.1221 8.8541 34.6137 8.5 34.0004H27C27.2339 34.0051 27.4621 33.9276 27.6449 33.7814C27.8276 33.6353 27.9532 33.4296 28 33.2004L30 23.2004C30.0286 23.0551 30.0246 22.9053 29.9883 22.7617C29.952 22.6182 29.8843 22.4845 29.79 22.3704C29.6948 22.253 29.5743 22.1588 29.4375 22.0947C29.3006 22.0306 29.1511 21.9983 29 22.0004H5.46L4 15.7704C3.94721 15.5466 3.81895 15.3479 3.63682 15.2077C3.45468 15.0674 3.22979 14.9942 3 15.0004H1C0.734784 15.0004 0.48043 15.1057 0.292893 15.2933C0.105357 15.4808 0 15.7351 0 16.0004C0 16.2656 0.105357 16.5199 0.292893 16.7075C0.48043 16.895 0.734784 17.0004 1 17.0004ZM27.78 24.0004L26.18 32.0004H7.84L5.94 24.0004H27.78Z" fill="#303030"/>
<path d="M15 42.0005C15 41.4071 14.8241 40.8271 14.4944 40.3338C14.1648 39.8404 13.6962 39.4559 13.1481 39.2289C12.5999 39.0018 11.9967 38.9424 11.4147 39.0581C10.8328 39.1739 10.2982 39.4596 9.87868 39.8792C9.45912 40.2987 9.1734 40.8333 9.05765 41.4152C8.94189 41.9972 9.0013 42.6004 9.22836 43.1485C9.45543 43.6967 9.83994 44.1653 10.3333 44.4949C10.8266 44.8245 11.4067 45.0005 12 45.0005C12.7957 45.0005 13.5587 44.6844 14.1213 44.1218C14.6839 43.5592 15 42.7961 15 42.0005ZM11 42.0005C11 41.8027 11.0587 41.6094 11.1685 41.4449C11.2784 41.2805 11.4346 41.1523 11.6173 41.0766C11.8 41.0009 12.0011 40.9811 12.1951 41.0197C12.3891 41.0583 12.5673 41.1535 12.7071 41.2934C12.847 41.4332 12.9422 41.6114 12.9808 41.8054C13.0194 41.9994 12.9996 42.2004 12.9239 42.3832C12.8482 42.5659 12.72 42.7221 12.5556 42.832C12.3911 42.9418 12.1978 43.0005 12 43.0005C11.7348 43.0005 11.4804 42.8951 11.2929 42.7076C11.1054 42.5201 11 42.2657 11 42.0005Z" fill="#303030"/>
<path d="M27 42.0005C27 41.4071 26.8241 40.8271 26.4944 40.3338C26.1648 39.8404 25.6962 39.4559 25.1481 39.2289C24.5999 39.0018 23.9967 38.9424 23.4147 39.0581C22.8328 39.1739 22.2982 39.4596 21.8787 39.8792C21.4591 40.2987 21.1734 40.8333 21.0576 41.4152C20.9419 41.9972 21.0013 42.6004 21.2284 43.1485C21.4554 43.6967 21.8399 44.1653 22.3333 44.4949C22.8266 44.8245 23.4067 45.0005 24 45.0005C24.7957 45.0005 25.5587 44.6844 26.1213 44.1218C26.6839 43.5592 27 42.7961 27 42.0005ZM24 43.0005C23.8022 43.0005 23.6089 42.9418 23.4444 42.832C23.28 42.7221 23.1518 42.5659 23.0761 42.3832C23.0004 42.2004 22.9806 41.9994 23.0192 41.8054C23.0578 41.6114 23.153 41.4332 23.2929 41.2934C23.4327 41.1535 23.6109 41.0583 23.8049 41.0197C23.9989 40.9811 24.2 41.0009 24.3827 41.0766C24.5654 41.1523 24.7216 41.2805 24.8315 41.4449C24.9414 41.6094 25 41.8027 25 42.0005C25 42.2657 24.8946 42.5201 24.7071 42.7076C24.5196 42.8951 24.2652 43.0005 24 43.0005Z" fill="#303030"/>
<circle cx="37.5" cy="19.5" r="11.5" fill="#FEB801"/>
<path d="M39.29 14.5V25H37.34V16.135H35.12V14.5H39.29Z" fill="#303030"/>
</svg>
