<svg width="139" height="94" viewBox="0 0 139 94" fill="none" xmlns="http://www.w3.org/2000/svg">
<path d="M131.906 35.4196C133.603 44.9185 128.282 54.8475 118.079 63.2272C107.89 71.5951 92.9194 78.3355 75.5787 81.4332C58.2379 84.5309 41.8593 83.3908 29.4035 79.068C16.9303 74.7392 8.50068 67.2666 6.80382 57.7677C5.10695 48.2689 10.428 38.3398 20.6309 29.9602C30.8197 21.5922 45.7906 14.8519 63.1313 11.7542C80.472 8.65643 96.8507 9.7965 109.306 14.1193C121.78 18.4481 130.209 25.9208 131.906 35.4196Z" fill="white" stroke="url(#paint0_linear_1_462)"/>
<ellipse cx="64.9643" cy="47.8807" rx="59.0849" ry="33.1132" transform="rotate(-10.1284 64.9643 47.8807)" fill="url(#paint1_linear_1_462)"/>
<path d="M28.9716 45.5169C28.5542 45.8369 28.0254 46.0595 27.3853 46.1848C26.7452 46.31 26.0634 46.3726 25.3399 46.3726C24.4632 46.3726 23.6423 46.2265 22.877 45.9343C22.1116 45.6282 21.4437 45.169 20.8732 44.5567C20.3027 43.9445 19.8505 43.1653 19.5166 42.2191C19.1826 41.259 19.0156 40.1249 19.0156 38.8169C19.0156 37.4533 19.1965 36.2984 19.5583 35.3522C19.934 34.392 20.421 33.6128 21.0193 33.0145C21.6316 32.4022 22.3134 31.957 23.0648 31.6787C23.8162 31.4004 24.5815 31.2612 25.3607 31.2612C26.1956 31.2612 26.8774 31.3099 27.4062 31.4073C27.935 31.4908 28.3872 31.6091 28.7629 31.7622L28.3454 33.2858C27.6775 32.9658 26.7244 32.8058 25.486 32.8058C24.9155 32.8058 24.3519 32.9101 23.7953 33.1188C23.2387 33.3276 22.7378 33.6685 22.2925 34.1416C21.8612 34.6147 21.5133 35.2339 21.2489 35.9992C20.9846 36.7645 20.8524 37.7037 20.8524 38.8169C20.8524 39.8188 20.9776 40.6954 21.2281 41.4468C21.4785 42.1982 21.8194 42.8244 22.2508 43.3253C22.6961 43.8262 23.2109 44.2019 23.7953 44.4524C24.3937 44.7028 25.0407 44.8281 25.7364 44.8281C26.3626 44.8281 26.9053 44.7655 27.3645 44.6402C27.8376 44.515 28.2341 44.355 28.5542 44.1602L28.9716 45.5169Z" fill="#BF132B"/>
<path d="M33.2355 43.5549C33.2355 44.0419 33.319 44.3898 33.486 44.5985C33.653 44.8072 33.8895 44.9116 34.1957 44.9116C34.3765 44.9116 34.5714 44.8976 34.7801 44.8698C34.9888 44.842 35.2253 44.7794 35.4897 44.682L35.6776 45.9969C35.4549 46.1082 35.1419 46.1987 34.7383 46.2682C34.3487 46.3378 34.0078 46.3726 33.7156 46.3726C33.0894 46.3726 32.5746 46.1987 32.1711 45.8508C31.7675 45.489 31.5658 44.8837 31.5658 44.0349V31.5117H33.2355V43.5549Z" fill="#BF132B"/>
<path d="M37.8272 35.6861H39.497V46.1221H37.8272V35.6861ZM37.4724 32.5136C37.4724 32.1935 37.5768 31.9222 37.7855 31.6995C38.0081 31.463 38.2864 31.3447 38.6204 31.3447C38.9543 31.3447 39.2396 31.463 39.4761 31.6995C39.7127 31.9222 39.8309 32.1935 39.8309 32.5136C39.8309 32.8336 39.7127 33.098 39.4761 33.3067C39.2396 33.5154 38.9543 33.6198 38.6204 33.6198C38.2864 33.6198 38.0081 33.5154 37.7855 33.3067C37.5768 33.098 37.4724 32.8336 37.4724 32.5136Z" fill="#BF132B"/>
<path d="M49.1728 46.1221V40.2153C49.1728 39.6588 49.145 39.1787 49.0893 38.7752C49.0476 38.3577 48.9572 38.0099 48.818 37.7316C48.6789 37.4533 48.4771 37.2446 48.2127 37.1054C47.9623 36.9663 47.6283 36.8967 47.2109 36.8967C46.5708 36.8967 46.0351 37.0915 45.6037 37.4811C45.1863 37.8707 44.8941 38.3577 44.7271 38.9422V46.1221H43.0573V35.6861H44.2262L44.5392 36.9593H44.6227C44.9984 36.514 45.4298 36.1523 45.9168 35.874C46.4177 35.5817 47.0648 35.4356 47.8579 35.4356C48.5258 35.4356 49.0685 35.5678 49.4859 35.8322C49.9173 36.0827 50.2512 36.5279 50.4878 37.168C50.8078 36.6254 51.2461 36.201 51.8027 35.8948C52.3732 35.5887 53.0133 35.4356 53.7229 35.4356C54.3074 35.4356 54.8013 35.5052 55.2049 35.6444C55.6084 35.7696 55.9423 35.9992 56.2067 36.3331C56.4711 36.6671 56.6589 37.1193 56.7703 37.6898C56.8955 38.2603 56.9581 38.9839 56.9581 39.8605V46.1221H55.2883V39.8397C55.2883 39.3387 55.2605 38.9074 55.2049 38.5456C55.1631 38.1699 55.0657 37.8638 54.9127 37.6272C54.7735 37.3767 54.5717 37.1959 54.3074 37.0845C54.0569 36.9593 53.7229 36.8967 53.3055 36.8967C52.6098 36.8967 52.0671 37.0915 51.6775 37.4811C51.2879 37.8707 51.0096 38.4273 50.8426 39.1509V46.1221H49.1728Z" fill="#BF132B"/>
<path d="M59.8285 36.4584C60.3573 36.1383 60.9695 35.9018 61.6653 35.7487C62.3749 35.5957 63.1124 35.5191 63.8777 35.5191C64.6013 35.5191 65.1787 35.6165 65.6101 35.8113C66.0554 36.0061 66.3893 36.2636 66.6119 36.5836C66.8485 36.8897 67.0015 37.2306 67.0711 37.6063C67.1546 37.982 67.1964 38.3577 67.1964 38.7334C67.1964 39.5683 67.1755 40.3823 67.1337 41.1755C67.092 41.9686 67.0711 42.72 67.0711 43.4296C67.0711 43.9445 67.092 44.4315 67.1337 44.8907C67.1755 45.3499 67.252 45.7743 67.3633 46.1639H66.1319L65.6936 44.7028H65.5892C65.464 44.8976 65.304 45.0925 65.1091 45.2873C64.9283 45.4682 64.7056 45.6351 64.4412 45.7882C64.1769 45.9273 63.8707 46.0456 63.5229 46.143C63.175 46.2404 62.7784 46.2891 62.3332 46.2891C61.8879 46.2891 61.4704 46.2195 61.0808 46.0804C60.7051 45.9413 60.3781 45.7464 60.0998 45.496C59.8216 45.2316 59.5989 44.9185 59.4319 44.5567C59.2789 44.195 59.2024 43.7845 59.2024 43.3253C59.2024 42.713 59.3276 42.2052 59.578 41.8016C59.8285 41.3842 60.1764 41.0572 60.6217 40.8206C61.0808 40.5702 61.6235 40.3962 62.2497 40.2988C62.8897 40.1875 63.5924 40.1319 64.3578 40.1319C64.5526 40.1319 64.7404 40.1319 64.9213 40.1319C65.1161 40.1319 65.3109 40.1458 65.5057 40.1736C65.5475 39.7562 65.5683 39.3805 65.5683 39.0465C65.5683 38.2812 65.4153 37.7455 65.1091 37.4394C64.803 37.1332 64.2464 36.9802 63.4394 36.9802C63.2028 36.9802 62.9454 37.001 62.6671 37.0428C62.4027 37.0706 62.1244 37.1193 61.8322 37.1889C61.5539 37.2446 61.2826 37.3211 61.0182 37.4185C60.7678 37.502 60.5451 37.5994 60.3503 37.7107L59.8285 36.4584ZM62.7923 44.8281C63.182 44.8281 63.5298 44.7794 63.8359 44.682C64.1421 44.5707 64.4065 44.4385 64.6291 44.2854C64.8517 44.1184 65.0326 43.9375 65.1718 43.7427C65.3248 43.5479 65.4361 43.3601 65.5057 43.1792V41.4468C65.3109 41.4329 65.1091 41.4259 64.9004 41.4259C64.7056 41.412 64.5108 41.4051 64.316 41.4051C63.8847 41.4051 63.4603 41.4329 63.0428 41.4885C62.6393 41.5303 62.2775 41.6207 61.9575 41.7599C61.6513 41.8851 61.4009 42.066 61.2061 42.3026C61.0252 42.5252 60.9347 42.8104 60.9347 43.1583C60.9347 43.6453 61.1087 44.0489 61.4565 44.3689C61.8044 44.675 62.2497 44.8281 62.7923 44.8281Z" fill="#BF132B"/>
<path d="M68.9724 35.6861H70.6005V33.6198L72.2702 33.1397V35.6861H75.1088V37.1472H72.2702V42.9287C72.2702 43.6523 72.3607 44.1671 72.5416 44.4733C72.7225 44.7655 73.0286 44.9116 73.4599 44.9116C73.8217 44.9116 74.1278 44.8768 74.3783 44.8072C74.6288 44.7237 74.9071 44.6194 75.2132 44.4941L75.5889 45.7673C75.2132 45.9482 74.8027 46.0943 74.3574 46.2056C73.9122 46.3169 73.4321 46.3726 72.9173 46.3726C72.0685 46.3726 71.4701 46.1361 71.1223 45.663C70.7744 45.1759 70.6005 44.3689 70.6005 43.2418V37.1472H68.9724V35.6861Z" fill="#BF132B"/>
<path d="M31.9255 49.5027H26.2379V65.8351H24.0724V49.5027H18.3848V47.572H31.9255V49.5027Z" fill="white"/>
<path d="M37.8015 54.799C37.2797 54.625 36.784 54.5381 36.3144 54.5381C35.5664 54.5381 34.9751 54.7468 34.5402 55.1642C34.1054 55.5643 33.8358 56.0774 33.7314 56.7035V65.8351H31.6442V52.79H33.1053L33.4966 54.3815H33.601C33.9315 53.7901 34.3228 53.3379 34.775 53.0248C35.2447 52.6944 35.836 52.5291 36.5492 52.5291C37.0536 52.5291 37.6189 52.6161 38.245 52.79L37.8015 54.799Z" fill="white"/>
<path d="M40.3021 53.7554C40.963 53.3553 41.7283 53.0596 42.598 52.8683C43.4851 52.677 44.4069 52.5813 45.3635 52.5813C46.268 52.5813 46.9898 52.7031 47.529 52.9466C48.0856 53.1901 48.5031 53.5118 48.7813 53.9119C49.077 54.2945 49.2684 54.7207 49.3553 55.1903C49.4597 55.6599 49.5119 56.1295 49.5119 56.5992C49.5119 57.6428 49.4858 58.6603 49.4336 59.6517C49.3814 60.6431 49.3553 61.5824 49.3553 62.4694C49.3553 63.113 49.3814 63.7218 49.4336 64.2957C49.4858 64.8697 49.5814 65.4002 49.7206 65.8872H48.1813L47.6334 64.0609H47.5029C47.3464 64.3044 47.1464 64.548 46.9029 64.7915C46.6767 65.0176 46.3985 65.2263 46.068 65.4176C45.7375 65.5916 45.3549 65.7394 44.92 65.8612C44.4852 65.9829 43.9895 66.0438 43.4329 66.0438C42.8763 66.0438 42.3545 65.9568 41.8675 65.7829C41.3979 65.6089 40.9891 65.3654 40.6412 65.0524C40.2934 64.7219 40.0151 64.3305 39.8064 63.8783C39.615 63.4261 39.5194 62.913 39.5194 62.339C39.5194 61.5737 39.6759 60.9388 39.989 60.4344C40.3021 59.9126 40.7369 59.5039 41.2935 59.2082C41.8675 58.8951 42.5458 58.6777 43.3285 58.5559C44.1286 58.4168 45.007 58.3472 45.9636 58.3472C46.2071 58.3472 46.4419 58.3472 46.6681 58.3472C46.9116 58.3472 47.1551 58.3646 47.3986 58.3994C47.4508 57.8776 47.4768 57.408 47.4768 56.9905C47.4768 56.0339 47.2855 55.3642 46.9029 54.9816C46.5202 54.5989 45.8245 54.4076 44.8157 54.4076C44.52 54.4076 44.1982 54.4337 43.8503 54.4859C43.5198 54.5207 43.172 54.5815 42.8067 54.6685C42.4588 54.7381 42.1197 54.8337 41.7892 54.9555C41.4761 55.0599 41.1978 55.1816 40.9543 55.3208L40.3021 53.7554ZM44.0069 64.2175C44.4939 64.2175 44.9287 64.1566 45.3114 64.0348C45.694 63.8957 46.0245 63.7305 46.3028 63.5391C46.5811 63.3304 46.8072 63.1043 46.9811 62.8608C47.1725 62.6173 47.3116 62.3825 47.3986 62.1564V59.9909C47.1551 59.9735 46.9029 59.9648 46.642 59.9648C46.3985 59.9474 46.1549 59.9387 45.9114 59.9387C45.3722 59.9387 44.8417 59.9735 44.3199 60.0431C43.8155 60.0952 43.3633 60.2083 42.9633 60.3822C42.5806 60.5388 42.2675 60.7649 42.024 61.0606C41.7979 61.3389 41.6848 61.6954 41.6848 62.1303C41.6848 62.739 41.9023 63.2434 42.3371 63.6435C42.7719 64.0261 43.3285 64.2175 44.0069 64.2175Z" fill="white"/>
<path d="M63.4725 61.3476C63.4725 62.2346 63.4812 63.0434 63.4986 63.7739C63.516 64.4871 63.5943 65.1915 63.7334 65.8872H62.3245L61.8027 64.0348H61.6984C61.3505 64.6436 60.8461 65.148 60.1852 65.5481C59.5242 65.9481 58.7502 66.1481 57.8631 66.1481C56.1238 66.1481 54.828 65.6003 53.9757 64.5045C53.1408 63.4087 52.7234 61.6954 52.7234 59.3647C52.7234 57.1384 53.2452 55.4512 54.2888 54.3032C55.3498 53.1379 56.8021 52.5552 58.6458 52.5552C59.2894 52.5552 59.7938 52.59 60.1591 52.6596C60.5417 52.7291 60.9505 52.8422 61.3853 52.9987V47.572H63.4725V61.3476ZM58.2023 64.3218C59.0894 64.3218 59.7938 64.0957 60.3156 63.6435C60.8374 63.1739 61.194 62.4694 61.3853 61.5302V55.0599C61.0722 54.8163 60.7157 54.6424 60.3156 54.5381C59.9156 54.4337 59.3851 54.3815 58.7241 54.3815C57.524 54.3815 56.5847 54.7816 55.9064 55.5817C55.228 56.3644 54.8889 57.6254 54.8889 59.3647C54.8889 60.0778 54.9411 60.7388 55.0454 61.3476C55.1672 61.9563 55.3585 62.4781 55.6194 62.913C55.8803 63.3478 56.2195 63.6957 56.6369 63.9566C57.0717 64.2001 57.5935 64.3218 58.2023 64.3218Z" fill="white"/>
<path d="M67.9362 52.79H70.0234V65.8351H67.9362V52.79ZM67.4926 48.8243C67.4926 48.4243 67.6231 48.0851 67.884 47.8068C68.1623 47.5111 68.5101 47.3633 68.9276 47.3633C69.345 47.3633 69.7016 47.5111 69.9973 47.8068C70.293 48.0851 70.4408 48.4243 70.4408 48.8243C70.4408 49.2244 70.293 49.5548 69.9973 49.8157C69.7016 50.0766 69.345 50.2071 68.9276 50.2071C68.5101 50.2071 68.1623 50.0766 67.884 49.8157C67.6231 49.5548 67.4926 49.2244 67.4926 48.8243Z" fill="white"/>
<path d="M82.8487 65.8351V58.3994C82.8487 57.0427 82.6487 56.0252 82.2486 55.3468C81.866 54.6511 81.1528 54.3032 80.1092 54.3032C79.1874 54.3032 78.4221 54.5554 77.8133 55.0599C77.2219 55.5469 76.8045 56.1643 76.561 56.9123V65.8351H74.4738V52.79H75.9348L76.3262 54.3815H76.4305C76.848 53.8249 77.4046 53.3727 78.1003 53.0248C78.8134 52.6596 79.657 52.4769 80.631 52.4769C81.3442 52.4769 81.9703 52.5639 82.5095 52.7378C83.0487 52.8944 83.4922 53.1814 83.8401 53.5988C84.2054 54.0163 84.475 54.5815 84.6489 55.2947C84.8402 55.9904 84.9359 56.8775 84.9359 57.9559V65.8351H82.8487Z" fill="white"/>
<path d="M98.7343 66.4351C98.7343 68.1223 98.2821 69.3659 97.3776 70.166C96.4905 70.9661 95.1686 71.3662 93.4119 71.3662C92.3683 71.3662 91.5247 71.2966 90.8812 71.1574C90.255 71.0357 89.7158 70.8704 89.2636 70.6617L89.8115 68.8876C90.2115 69.0441 90.6551 69.192 91.1421 69.3311C91.6291 69.4703 92.2639 69.5399 93.0466 69.5399C93.7772 69.5399 94.3685 69.4703 94.8208 69.3311C95.2904 69.2094 95.6643 68.992 95.9426 68.6789C96.2209 68.3832 96.4123 67.9918 96.5166 67.5048C96.621 67.0352 96.6732 66.4699 96.6732 65.809V64.5566H96.5688C96.2209 65.0611 95.7774 65.4524 95.2382 65.7307C94.699 65.9916 93.9946 66.1221 93.1249 66.1221C91.3682 66.1221 90.0724 65.5742 89.2375 64.4784C88.42 63.3826 88.0113 61.678 88.0113 59.3647C88.0113 57.1384 88.5418 55.4512 89.6028 54.3032C90.6637 53.1379 92.2292 52.5552 94.299 52.5552C95.2904 52.5552 96.134 52.6335 96.8297 52.79C97.5428 52.9466 98.1777 53.1292 98.7343 53.3379V66.4351ZM93.4902 64.2957C94.3772 64.2957 95.073 64.0783 95.5774 63.6435C96.0818 63.1913 96.4384 62.4955 96.6471 61.5563V54.8772C95.9513 54.5468 95.0643 54.3815 93.9859 54.3815C92.8031 54.3815 91.8726 54.7816 91.1942 55.5817C90.5159 56.3818 90.1767 57.6341 90.1767 59.3386C90.1767 60.0692 90.2376 60.7388 90.3594 61.3476C90.4811 61.9563 90.6724 62.4781 90.9333 62.913C91.1942 63.3478 91.5334 63.687 91.9509 63.9305C92.3683 64.174 92.8814 64.2957 93.4902 64.2957Z" fill="white"/>
<defs>
<linearGradient id="paint0_linear_1_462" x1="12.2596" y1="70.076" x2="123.205" y2="23.4561" gradientUnits="userSpaceOnUse">
<stop stop-color="#FF9701"/>
<stop offset="1" stop-color="#FED501"/>
</linearGradient>
<linearGradient id="paint1_linear_1_462" x1="32.9572" y1="73.3321" x2="56.6037" y2="31.4455" gradientUnits="userSpaceOnUse">
<stop offset="0.0565648" stop-color="#FF9600"/>
<stop offset="1" stop-color="#FED501"/>
</linearGradient>
</defs>
</svg>
